<?xml version="1.0" encoding="UTF-8" standalone="no"?>
<svg width="126px" height="144px" viewBox="0 0 126 144" version="1.1" xmlns="http://www.w3.org/2000/svg" xmlns:xlink="http://www.w3.org/1999/xlink" xmlns:sketch="http://www.bohemiancoding.com/sketch/ns">
    <!-- Generator: Sketch 3.3.3 (12072) - http://www.bohemiancoding.com/sketch -->
    <title>anglepoise_icon</title>
    <desc>Created with Sketch.</desc>
    <defs></defs>
    <g id="Page-1" stroke="none" stroke-width="1" fill="none" fill-rule="evenodd" sketch:type="MSPage">
        <g id="icons" sketch:type="MSArtboardGroup" transform="translate(-1179.585783, -53.822131)">
            <g id="anglepoise_icon" sketch:type="MSLayerGroup" transform="translate(1181.000000, 55.002379)">
                <path d="M61.6155779,0 L123.231156,35.248227 L123.231156,105.744681 L61.6155779,140.992908 L-4.26325641e-14,105.744681 L-4.26325641e-14,35.248227 L61.6155779,0 Z" id="Polygon-1-Copy-6" stroke="#BEBEBE" stroke-width="2" sketch:type="MSShapeGroup"></path>
                <path d="M62.6892298,57.4935352 C62.6892298,57.4935352 63.6705207,58.0350294 66.1043816,58.0350294 C67.6691867,58.0350294 69.8349806,57.8113844 72.7285908,57.0757289 C80.1193492,55.1970387 81.6261451,51.649101 81.6261451,51.649101 C81.6261451,51.649101 80.0498103,47.5434888 74.8895207,44.2734893 C74.332489,42.4643736 72.7981297,37.5945211 69.451616,33.488909 C68.1966733,33.488909 68.1966733,33.1404974 68.1966733,33.1404974 C68.1966733,33.1404974 66.8022926,28.688631 66.2445403,27.923312 C65.8858566,27.8386361 65.4833958,27.7368812 65.0542724,27.7368812 C64.7137841,27.7368812 64.3570821,27.844389 63.9910121,27.844389 L63.9904716,27.844389 C63.902377,27.66461 63.7933847,27.4476168 63.6485421,27.2352979 C63.4874857,27.000147 63.2785087,26.7941203 63.0028753,26.627645 C62.7283229,26.4609899 62.3887353,26.3694824 62.0073524,26.37146 C61.4560856,26.3723589 60.8286142,26.5701157 60.0752163,26.9994279 C59.4142366,27.384874 58.9326888,28.1370691 58.5741852,29.0582565 C58.2221672,29.9805226 58.0113887,31.0885003 58.0104879,32.2124784 C58.0104879,32.5997223 58.0362497,32.9885842 58.0906558,33.3731314 C58.2241488,34.2858692 58.7361424,35.3463852 59.2016566,36.4921166 C59.6689723,37.6313758 60.0865659,38.8373331 60.0847644,39.8983885 C60.0752163,40.885375 59.7662546,41.7285383 58.7772172,42.4774975 C57.2608732,43.6101049 56.3739822,44.5237416 55.8562237,45.2556218 C55.4238576,45.8675894 55.2503707,46.3592848 55.2044318,46.7371802 L20.9669803,65.2517165 C20.9669803,66.5040567 21.900711,66.5040567 21.900711,66.5040567 L59.027449,86.1247729 L59.0270887,86.1251325 L59.5509724,101.265757 L47.7326048,106.128778 L47.7326048,108.215832 L61.3116032,114.547467 C61.3116032,114.547467 61.4296031,114.716819 61.8949372,114.716819 C62.2736178,114.716819 62.8996479,114.605536 63.8371618,114.200134 C65.9285527,113.295127 75.2959448,108.633638 75.2959448,108.633638 L75.2959448,106.615979 L63.225724,101.780464 L63.225724,98.7540651 L67.6043317,86.4523302 L67.6018096,86.4523302 L26.4526255,64.0236464 L60.9105836,45.6081683 L60.8981531,45.6047525 C61.2292735,45.6692932 61.601829,45.7050692 62.0540119,45.7059681 C62.4789917,45.7059681 62.97297,45.6818777 63.5476567,45.6270451 C63.7409603,46.3380709 63.9630884,47.091165 64.2226883,47.8904622 C62.5490711,52.5528498 62.4098132,54.9191005 62.6892298,57.4935352 L62.6892298,57.4935352 Z M79.2629039,52.5505127 C79.3028978,52.5965361 79.3614474,52.622604 79.422339,52.622604 C79.3614474,52.622604 79.3028978,52.5965361 79.2629039,52.5505127 L79.2629039,52.5505127 Z M56.5408034,45.7372496 C56.9852398,45.1053266 57.8092575,44.242028 59.2778611,43.1466348 C60.4756954,42.2635605 60.9305806,41.0757609 60.9210325,39.8985683 C60.91815,38.6260928 60.4423672,37.3442688 59.9673049,36.1764247 C59.4895403,35.0173897 59.0822154,33.9523792 58.9020629,33.2577133 L58.9020629,33.2566346 C58.9020629,32.9150546 58.8382889,32.5637665 58.8382889,32.2135571 C58.8382889,31.195289 59.038078,30.1761221 59.3517236,29.3584874 C59.6608654,28.5390549 60.1072834,27.9357167 60.4888465,27.7291507 C61.1611758,27.3438844 61.6600182,27.2144435 62.0062714,27.2153424 C62.2474957,27.2162413 62.4206223,27.2723323 62.5694283,27.3609634 C62.7926373,27.4932807 62.9711685,27.7253753 63.1124081,28.007089 C63.1504203,28.081877 63.1850096,28.1593617 63.217437,28.2373858 L63.217437,28.2373858 C62.7605702,28.4867392 62.3001002,28.8551063 61.8518807,29.3841958 C62.1303965,31.6806922 63.2460813,34.7412493 63.2460813,34.7412493 C63.2460813,34.7412493 62.2008362,34.8811173 62.3391934,35.8548001 C62.426207,36.4644306 62.1866041,38.0811828 62.5921275,41.0457379 C62.3065857,41.217247 61.8034197,41.5306017 61.2863819,41.9075982 C60.8963516,42.1930872 60.4994755,42.5109364 60.1667338,42.8602469 C59.9999125,43.0362505 59.8473233,43.2199846 59.7204959,43.4350002 C59.5963708,43.649117 59.4819739,43.9042233 59.4781907,44.2411291 C59.47729,44.2984786 59.4835953,44.358345 59.4926029,44.4183912 L56.2783212,46.1564941 C56.346599,46.0304691 56.4321714,45.8913202 56.5408034,45.7372496 L56.5408034,45.7372496 Z M63.7661817,86.0489062 L65.3286447,86.8998 L63.7661817,91.9695667 L63.7661817,86.0489062 L63.7661817,86.0489062 Z M60.3432833,84.2264869 L60.3432833,84.7052382 L23.6240503,65.570105 L24.8644006,64.9002486 L60.3432833,84.2264869 L60.3432833,84.2264869 Z M62.0540119,44.0412149 C61.7787388,44.0430127 61.5557099,44.0271921 61.3851055,44.0054389 C61.4627512,43.9232799 61.5551695,43.83375 61.6582167,43.7443998 C62.018702,43.4260113 62.4955658,43.0891055 62.89028,42.8311227 C62.9625212,43.2014674 63.04377,43.5870932 63.1358279,43.9899779 C62.7128297,44.0250348 62.3523445,44.0412149 62.0540119,44.0412149 L62.0540119,44.0412149 Z" id="Imported-Layers" fill="#BEBEBE" sketch:type="MSShapeGroup"></path>
            </g>
        </g>
    </g>
</svg>