<?xml version="1.0" encoding="UTF-8" standalone="no"?>
<svg width="126px" height="146px" viewBox="0 0 126 146" version="1.1" xmlns="http://www.w3.org/2000/svg" xmlns:xlink="http://www.w3.org/1999/xlink" xmlns:sketch="http://www.bohemiancoding.com/sketch/ns">
    <!-- Generator: Sketch 3.3.3 (12072) - http://www.bohemiancoding.com/sketch -->
    <title>ibm_icon_white</title>
    <desc>Created with Sketch.</desc>
    <defs></defs>
    <g id="Page-1" stroke="none" stroke-width="1" fill="none" fill-rule="evenodd" sketch:type="MSPage">
        <g id="ibm_icon_white" sketch:type="MSLayerGroup" transform="translate(1.000000, 1.725311)">
            <path d="M62,0 L123.475253,35.5 L123.475253,106.5 L62,142 L0.524747423,106.5 L0.524747423,35.5 L62,0 Z" id="Polygon-1" stroke="#FFFFFF" stroke-width="3" sketch:type="MSShapeGroup"></path>
            <path d="M19.4176812,81.2356835 C19.5335942,81.2401772 19.6504058,81.2491646 19.7663188,81.2491646 L35.6994203,81.2491646 L36.0723188,81.2491646 L36.0723188,83.6451899 L35.7254783,83.6451899 C30.406058,83.6451899 25.0857391,83.6451899 19.7663188,83.6460886 C19.6504058,83.6460886 19.5335942,83.6550759 19.4176812,83.6595696 L19.4176812,81.2356835" id="Fill-1" fill="#FFFFFF" sketch:type="MSShapeGroup"></path>
            <path d="M19.4176812,58.5066962 C23.9023478,58.5084937 28.3861159,58.5093924 32.8707826,58.5102911 C33.8394203,58.5111899 34.808058,58.5102911 35.7766957,58.5102911 L36.0804058,58.5102911 L36.0804058,60.8964304 L35.747942,60.8964304 C30.4024638,60.8964304 25.0569855,60.8964304 19.7115072,60.8955316 C19.6135652,60.8955316 19.5156232,60.8829494 19.4176812,60.8766582 L19.4176812,58.5066962" id="Fill-2" fill="#FFFFFF" sketch:type="MSShapeGroup"></path>
            <path d="M19.4176812,85.8138354 C19.5246087,85.8075443 19.6315362,85.794962 19.7384638,85.794962 C25.065971,85.7940633 30.3934783,85.7940633 35.7209855,85.7940633 L36.0804058,85.7940633 L36.0804058,88.1802025 L35.7236812,88.1802025 L19.7672174,88.1802025 C19.6504058,88.1802025 19.5344928,88.182 19.4176812,88.1837975 L19.4176812,85.8138354" id="Fill-3" fill="#FFFFFF" sketch:type="MSShapeGroup"></path>
            <path d="M19.4176812,53.9824684 C19.5246087,53.9761772 19.6315362,53.9644937 19.7384638,53.9635949 C25.065971,53.9626962 30.3934783,53.9635949 35.7209855,53.9635949 L36.0804058,53.9635949 L36.0804058,56.3488354 L35.7236812,56.3488354 L19.7672174,56.3488354 C19.6504058,56.3488354 19.5344928,56.3515316 19.4176812,56.3524304 L19.4176812,53.9824684" id="Fill-4" fill="#FFFFFF" sketch:type="MSShapeGroup"></path>
            <path d="M78.961942,68.2732405 L78.961942,69.9592658 L71.8310435,69.9592658 L71.8310435,67.6126709 L72.1158841,67.6126709 C76.4316232,67.6126709 80.7473623,67.6144684 85.064,67.6081772 C85.2724638,67.6081772 85.3766957,67.6531139 85.4458841,67.8688101 C85.6390725,68.4727595 85.8637101,69.0650253 86.0991304,69.7264937 C86.3642029,68.9823418 86.6068116,68.3037975 86.8485217,67.6279494 L100.378,67.6279494 L100.378,69.9637595 L93.2533913,69.9637595 L93.2533913,68.2768354 C93.2363188,68.2723418 93.2192464,68.2678481 93.2021739,68.2624557 C93.1743188,68.3199747 93.1392754,68.3738987 93.1177101,68.4332152 C92.9577681,68.8798861 92.796029,69.326557 92.6450725,69.7768228 C92.5956522,69.9224177 92.5291594,69.9871266 92.3611304,69.9871266 C88.1801739,69.9817342 83.9983188,69.9826329 79.8173623,69.9862278 C79.6610145,69.9862278 79.6035072,69.9269114 79.5567826,69.7867089 C79.3869565,69.2789241 79.2009565,68.7756329 79.0212464,68.271443 C79.0014783,68.271443 78.9817101,68.2723418 78.961942,68.2732405" id="Fill-5" fill="#FFFFFF" sketch:type="MSShapeGroup"></path>
            <path d="M64.8726667,81.2707342 C64.8609855,81.3776835 64.8654783,81.4693544 64.8394203,81.552038 C64.6453333,82.1568861 64.4413623,82.759038 64.249971,83.3647848 C64.1798841,83.5903671 64.0451014,83.6505823 63.8132754,83.6505823 C55.8808696,83.6442911 47.9484638,83.6451899 40.016058,83.6451899 L38.4948116,83.6451899 L38.4948116,81.2707342 L64.8726667,81.2707342" id="Fill-6" fill="#FFFFFF" sketch:type="MSShapeGroup"></path>
            <path d="M38.4930145,58.5102911 L38.8155942,58.5102911 C47.1586377,58.5102911 55.5025797,58.5120886 63.8456232,58.504 C64.1062029,58.5031013 64.2373913,58.5848861 64.3110725,58.8194557 C64.4970725,59.4081266 64.6929565,59.9941013 64.8807536,60.5818734 C64.9077101,60.6654557 64.9148986,60.7562278 64.9355652,60.8712658 L38.4930145,60.8712658 L38.4930145,58.5102911" id="Fill-7" fill="#FFFFFF" sketch:type="MSShapeGroup"></path>
            <path d="M38.4885217,56.3254684 L38.4885217,53.9635949 L38.8111014,53.9635949 C44.276087,53.9635949 49.7410725,53.96 55.206058,53.9653924 C56.6823768,53.9671899 58.1434203,54.0921139 59.5406667,54.6277595 C60.5578261,55.0169114 61.4536812,55.6001899 62.3234783,56.3254684 L38.4885217,56.3254684" id="Fill-8" fill="#FFFFFF" sketch:type="MSShapeGroup"></path>
            <path d="M62.3234783,85.8156329 C60.928029,87.0226329 59.3870145,87.7883544 57.6105797,88.0112405 C56.7857101,88.1145949 55.950058,88.1703165 55.1188986,88.1730127 C49.6988406,88.1864937 44.2796812,88.1802025 38.8605217,88.1802025 L38.4957101,88.1802025 L38.4957101,85.8156329 L62.3234783,85.8156329" id="Fill-9" fill="#FFFFFF" sketch:type="MSShapeGroup"></path>
            <path d="M63.6775942,74.5275316 L43.249942,74.5275316 L43.249942,72.1467848 L43.5446667,72.1467848 C49.4751014,72.1467848 55.4064348,72.1458861 61.3377681,72.1530759 C61.4770435,72.1530759 61.6621449,72.1944177 61.7475072,72.2878861 C62.3998551,73.001481 63.0324348,73.7330506 63.6704058,74.4601266 C63.6793913,74.4700127 63.674,74.4933797 63.6775942,74.5275316" id="Fill-10" fill="#FFFFFF" sketch:type="MSShapeGroup"></path>
            <path d="M63.7413913,67.7115316 C63.0818551,68.4287215 62.4268116,69.1495063 61.7573913,69.8586076 C61.6846087,69.9358987 61.5363478,69.9781392 61.4231304,69.9781392 C55.4378841,69.9835316 49.4526377,69.9826329 43.4673913,69.9826329 C43.3982029,69.9826329 43.3290145,69.9709494 43.2472464,69.9637595 L43.2472464,67.6297468 L63.6722029,67.6297468 C63.6955652,67.6567089 63.718029,67.6845696 63.7413913,67.7115316" id="Fill-11" fill="#FFFFFF" sketch:type="MSShapeGroup"></path>
            <path d="M105.125942,60.8784557 L89.2467536,60.8784557 C89.5235072,60.1037468 89.7903768,59.3542025 90.0644348,58.6082532 C90.0797101,58.5651139 90.148,58.5336582 90.1974203,58.5147848 C90.2369565,58.4995063 90.2863768,58.5102911 90.3313043,58.5102911 L104.917478,58.5102911 L105.125942,58.5102911 L105.125942,60.8784557" id="Fill-12" fill="#FFFFFF" sketch:type="MSShapeGroup"></path>
            <path d="M67.0741159,58.5102911 L67.3715362,58.5102911 C72.1877681,58.5102911 77.004,58.5120886 81.8202319,58.5048987 C82.0448696,58.5048987 82.1455072,58.5687089 82.2164928,58.7853038 C82.4465217,59.4800253 82.7026087,60.1666582 82.956,60.8802532 L67.0741159,60.8802532 L67.0741159,58.5102911" id="Fill-13" fill="#FFFFFF" sketch:type="MSShapeGroup"></path>
            <path d="M105.137623,53.9806709 L105.137623,56.3308608 L90.8803188,56.3308608 C90.9009855,56.2562658 90.9162609,56.1807722 90.9414203,56.1088734 C91.1696522,55.4671772 91.4050725,54.8290759 91.6252174,54.1846835 C91.6791304,54.0265063 91.7483188,53.9591013 91.9253333,53.96 C96.2590435,53.9644937 100.591855,53.9635949 104.924667,53.9644937 C104.986667,53.9644937 105.048667,53.973481 105.137623,53.9806709" id="Fill-14" fill="#FFFFFF" sketch:type="MSShapeGroup"></path>
            <path d="M81.3404058,56.3353544 L67.0714203,56.3353544 L67.0714203,53.9635949 L67.4029855,53.9635949 C71.663913,53.9635949 75.9248406,53.9653924 80.1857681,53.9573038 C80.422087,53.9573038 80.5281159,54.0256076 80.6035942,54.2529873 C80.8327246,54.9477089 81.0897101,55.633443 81.3404058,56.3353544" id="Fill-15" fill="#FFFFFF" sketch:type="MSShapeGroup"></path>
            <path d="M87.632058,65.4332405 C87.9061159,64.667519 88.1684928,63.9260633 88.4416522,63.1873038 C88.4614203,63.1333797 88.5512754,63.0911392 88.6168696,63.0704684 C88.6824638,63.0506962 88.7588406,63.0650759 88.8307246,63.0650759 L100.004203,63.0650759 L100.370812,63.0650759 L100.370812,65.4332405 L87.632058,65.4332405" id="Fill-16" fill="#FFFFFF" sketch:type="MSShapeGroup"></path>
            <path d="M71.8265507,65.4422278 L71.8265507,63.0812532 C71.9298841,63.0758608 72.0251304,63.0659747 72.1194783,63.0659747 C75.8951884,63.0650759 79.6708986,63.0668734 83.4475072,63.0605823 C83.6604638,63.0605823 83.7593043,63.119 83.8284928,63.3293038 C84.0603188,64.0330127 84.3182029,64.7277342 84.5724928,65.4422278 L71.8265507,65.4422278" id="Fill-17" fill="#FFFFFF" sketch:type="MSShapeGroup"></path>
            <path d="M93.2506957,88.1613291 L93.2506957,85.8165316 L105.128638,85.8165316 L105.128638,88.1613291 L93.2506957,88.1613291" id="Fill-18" fill="#FFFFFF" sketch:type="MSShapeGroup"></path>
            <path d="M78.9466667,85.8129367 L78.9466667,88.1604304 L67.0723188,88.1604304 L67.0723188,85.8129367 L78.9466667,85.8129367" id="Fill-19" fill="#FFFFFF" sketch:type="MSShapeGroup"></path>
            <path d="M93.2542899,83.6029494 L93.2542899,81.2653418 L105.13313,81.2653418 L105.13313,83.6029494 L93.2542899,83.6029494" id="Fill-20" fill="#FFFFFF" sketch:type="MSShapeGroup"></path>
            <path d="M67.0705217,83.6047468 L67.0705217,81.268038 L78.9358841,81.268038 L78.9358841,83.6047468 L67.0705217,83.6047468" id="Fill-21" fill="#FFFFFF" sketch:type="MSShapeGroup"></path>
            <path d="M91.8085217,72.162962 C91.591971,72.7947722 91.3871014,73.3942278 91.1795362,73.9927848 C90.9881449,74.5437089 90.9863478,74.5428101 90.3897101,74.5428101 C87.4469565,74.5428101 84.5033043,74.5383165 81.5605507,74.5508987 C81.2828986,74.5517975 81.1723768,74.4637215 81.0933043,74.2111772 C80.9064058,73.613519 80.6871594,73.0248481 80.4822899,72.4325823 C80.4535362,72.3516962 80.4337681,72.2681139 80.4041159,72.162962 L91.8085217,72.162962" id="Fill-22" fill="#FFFFFF" sketch:type="MSShapeGroup"></path>
            <path d="M65.2401739,79.0751266 L57.5467826,79.0751266 L57.5467826,76.720443 C57.6330435,76.7159494 57.7202029,76.7078608 57.8064638,76.7078608 C60.0393623,76.706962 62.2722609,76.7114557 64.5051594,76.7015696 C64.7315942,76.7006709 64.8277391,76.7716709 64.8645797,76.9837722 C64.9822899,77.6695063 65.1089855,78.353443 65.2401739,79.0751266" id="Fill-23" fill="#FFFFFF" sketch:type="MSShapeGroup"></path>
            <path d="M57.5368986,65.435038 L57.5368986,63.0902405 L65.1934493,63.0902405 C65.0586667,63.8919114 64.9283768,64.6693165 64.7989855,65.435038 L57.5368986,65.435038" id="Fill-24" fill="#FFFFFF" sketch:type="MSShapeGroup"></path>
            <path d="M90.227971,76.7258354 C89.9655942,77.4789747 89.7077101,78.2042532 89.4633043,78.9331266 C89.4075942,79.0975949 89.2961739,79.0859114 89.1694783,79.0859114 C87.8414203,79.0850127 86.5133623,79.0850127 85.1853043,79.0850127 C84.4673623,79.0850127 83.7494203,79.080519 83.0314783,79.0886076 C82.8652464,79.0904051 82.7807826,79.049962 82.7232754,78.8783038 C82.4869565,78.1656076 82.2308696,77.4601013 81.9738841,76.7258354 L90.227971,76.7258354" id="Fill-25" fill="#FFFFFF" sketch:type="MSShapeGroup"></path>
            <path d="M93.2569855,74.5239367 L93.2569855,72.162962 L100.375304,72.162962 L100.375304,74.5239367 L93.2569855,74.5239367" id="Fill-26" fill="#FFFFFF" sketch:type="MSShapeGroup"></path>
            <path d="M31.3189855,72.1674557 L31.3189855,74.5275316 L24.188087,74.5275316 L24.188087,72.1674557 L31.3189855,72.1674557" id="Fill-27" fill="#FFFFFF" sketch:type="MSShapeGroup"></path>
            <path d="M78.9403768,74.5302278 L71.831942,74.5302278 L71.831942,72.1638608 L78.9403768,72.1638608 L78.9403768,74.5302278" id="Fill-28" fill="#FFFFFF" sketch:type="MSShapeGroup"></path>
            <path d="M31.3216812,63.0866456 L31.3216812,65.4296456 L24.1889855,65.4296456 L24.1889855,63.0866456 L31.3216812,63.0866456" id="Fill-29" fill="#FFFFFF" sketch:type="MSShapeGroup"></path>
            <path d="M43.2445507,65.431443 L43.2445507,63.0902405 L50.3574783,63.0902405 L50.3574783,65.431443 L43.2445507,65.431443" id="Fill-30" fill="#FFFFFF" sketch:type="MSShapeGroup"></path>
            <path d="M24.1835942,69.965557 L24.1835942,67.6288481 L31.3135942,67.6288481 L31.3135942,69.965557 L24.1835942,69.965557" id="Fill-31" fill="#FFFFFF" sketch:type="MSShapeGroup"></path>
            <path d="M93.2515942,79.067038 L93.2515942,76.7258354 L100.370812,76.7258354 L100.370812,79.067038 L93.2515942,79.067038" id="Fill-32" fill="#FFFFFF" sketch:type="MSShapeGroup"></path>
            <path d="M71.8202609,79.0652405 L71.8202609,76.7276329 L78.9376812,76.7276329 L78.9376812,79.0652405 L71.8202609,79.0652405" id="Fill-33" fill="#FFFFFF" sketch:type="MSShapeGroup"></path>
            <path d="M50.3709565,76.7258354 L50.3709565,79.0616456 L43.2544348,79.0616456 L43.2544348,76.7258354 L50.3709565,76.7258354" id="Fill-34" fill="#FFFFFF" sketch:type="MSShapeGroup"></path>
            <path d="M24.1835942,79.0706329 L24.1835942,76.7267342 L31.3189855,76.7267342 L31.3189855,79.0706329 L24.1835942,79.0706329" id="Fill-35" fill="#FFFFFF" sketch:type="MSShapeGroup"></path>
            <path d="M88.6348406,81.2770253 C88.4686087,81.7596456 88.3122609,82.2233924 88.1478261,82.684443 C88.0364058,82.9936076 87.9941739,83.4106203 87.7713333,83.5732911 C87.5583768,83.7296709 87.1504348,83.6227215 86.8278551,83.624519 C86.0928406,83.6272152 85.3569275,83.6290127 84.6210145,83.6200253 C84.532058,83.6191266 84.3864928,83.5714937 84.3631304,83.5103797 C84.0926667,82.7806076 83.8392754,82.045443 83.5688116,81.2770253 L88.6348406,81.2770253" id="Fill-36" fill="#FFFFFF" sketch:type="MSShapeGroup"></path>
            <path d="M85.1601449,85.812038 L87.056087,85.812038 C86.7883188,86.5786582 86.5313333,87.3219114 86.2671594,88.0624684 C86.2482899,88.1127975 86.1665217,88.1739114 86.1188986,88.1712152 C86.0568986,88.1667215 85.9643478,88.1145949 85.9454783,88.0606709 C85.6804058,87.3210127 85.4252174,86.5768608 85.1601449,85.812038" id="Fill-37" fill="#FFFFFF" sketch:type="MSShapeGroup"></path>
        </g>
    </g>
</svg>