<?xml version="1.0" encoding="UTF-8" standalone="no"?>
<svg width="126px" height="144px" viewBox="0 0 126 144" version="1.1" xmlns="http://www.w3.org/2000/svg" xmlns:xlink="http://www.w3.org/1999/xlink" xmlns:sketch="http://www.bohemiancoding.com/sketch/ns">
    <!-- Generator: Sketch 3.3.3 (12072) - http://www.bohemiancoding.com/sketch -->
    <title>morgansmith_icon</title>
    <desc>Created with Sketch.</desc>
    <defs></defs>
    <g id="Page-1" stroke="none" stroke-width="1" fill="none" fill-rule="evenodd" sketch:type="MSPage">
        <g id="icons" sketch:type="MSArtboardGroup" transform="translate(-690.585783, -53.822131)">
            <g id="morgansmith_icon" sketch:type="MSLayerGroup" transform="translate(691.585783, 54.912255)">
                <path d="M62.0052671,0.420460339 L123.266393,35.712858 L123.266393,106.297653 L62.0052671,141.590051 L0.744141227,106.297653 L0.744141227,35.712858 L62.0052671,0.420460339 Z" id="Polygon-1-Copy-2" stroke="#BEBEBE" stroke-width="2" sketch:type="MSShapeGroup"></path>
                <path d="M32.5414408,84.9667496 L36.2108759,84.9667496 L36.2108759,50.2381368 L53.8435052,84.9667496 L55.5716676,84.9667496 L72.9741738,50.2381368 L72.9741738,84.9667496 L80.4652655,84.9667496 L80.4652655,42.1941506 L72.9741738,42.1941506 L56.5038009,75.0768369 L39.7836055,42.1941506 L32.5414408,42.1941506 L32.5414408,84.9667496" id="Fill-1" fill="#BEBEBE" sketch:type="MSShapeGroup"></path>
                <path d="M87.1495829,76.2267436 L91.0679449,74.6166956 C91.0679449,74.6166956 89.8868847,63.6921348 75.6246198,63.6921348 C61.9103526,63.6921348 62.3714943,76.2267436 62.3714943,76.2267436 C62.3714943,76.2267436 61.6802294,82.2067947 70.9003789,87.0369391 C80.119633,91.8661899 85.6515436,94.5117795 85.6515436,99.1114065 C85.6515436,103.711033 81.1565305,105.781223 77.2381683,105.781223 C73.3198063,105.781223 68.2490375,104.286433 65.3684682,97.2717344 C63.7549197,97.7309823 61.1035783,98.8817825 61.1035783,98.8817825 C61.1035783,98.8817825 63.4092872,108.891421 76.0857616,108.891421 C88.7631315,108.891421 91.9902286,101.526479 91.9902286,96.9259582 C91.9902286,92.3263314 88.5321128,87.4970804 76.5469034,82.091536 C69.0558117,78.2969332 67.903405,75.4217196 67.903405,72.8922822 C67.903405,70.3619513 71.3606253,66.9122311 76.5469034,66.9122311 C81.7331816,66.9122311 85.8816668,71.6271168 87.1495829,76.2267436" id="Fill-2" fill="#BEBEBE" sketch:type="MSShapeGroup"></path>
            </g>
        </g>
    </g>
</svg>