<?xml version="1.0" encoding="UTF-8" standalone="no"?>
<svg width="128px" height="147px" viewBox="0 0 128 147" version="1.1" xmlns="http://www.w3.org/2000/svg" xmlns:xlink="http://www.w3.org/1999/xlink" xmlns:sketch="http://www.bohemiancoding.com/sketch/ns">
    <!-- Generator: Sketch 3.3.3 (12072) - http://www.bohemiancoding.com/sketch -->
    <title>the_app_business_icon_white</title>
    <desc>Created with Sketch.</desc>
    <defs></defs>
    <g id="Page-1" stroke="none" stroke-width="1" fill="none" fill-rule="evenodd" sketch:type="MSPage">
        <g id="the_app_business_icon_white" sketch:type="MSLayerGroup" transform="translate(2.000000, 2.635186)">
            <path d="M61.7680264,0 L123.536053,35.4549378 L123.536053,106.364814 L61.7680264,141.819751 L3.55271368e-14,106.364814 L3.55271368e-14,35.4549378 L61.7680264,0 Z" id="Polygon-1-Copy-3" stroke="#FFFFFF" stroke-width="3" sketch:type="MSShapeGroup"></path>
            <g id="box" transform="translate(31.658253, 41.532927)" fill="#FFFFFF" sketch:type="MSShapeGroup">
                <path d="M4.07154887,16.2319734 L0.0475498712,16.2319734 L0.0475498712,10.2300432 C0.0475498712,4.71429766 4.56056995,0.227454432 10.1084951,0.227454432 L16.146389,0.227454432 L16.146389,4.22811305 L10.1084951,4.22811305 C6.78011908,4.22811305 4.07154887,6.92097277 4.07154887,10.2300432 L4.07154887,16.2319734" id="Fill-1"></path>
                <path d="M16.146389,59.6145275 L10.1084951,59.6145275 C4.56056995,59.6145275 0.0475498712,55.1276843 0.0475498712,49.6119387 L0.0475498712,43.6100086 L4.07154887,43.6100086 L4.07154887,49.6119387 C4.07154887,52.9210092 6.78011908,55.6138689 10.1084951,55.6138689 L16.146389,55.6138689 L16.146389,59.6145275" id="Fill-2"></path>
                <path d="M59.781095,16.2319734 L55.757096,16.2319734 L55.757096,10.2300432 C55.757096,6.92097277 53.0485258,4.22811305 49.7201499,4.22811305 L43.6822559,4.22811305 L43.6822559,0.227454432 L49.7201499,0.227454432 C55.2680749,0.227454432 59.781095,4.71429766 59.781095,10.2300432 L59.781095,16.2319734" id="Fill-3"></path>
                <path d="M49.7201499,59.6145275 L43.6822559,59.6145275 L43.6822559,55.6138689 L49.7201499,55.6138689 C53.0485258,55.6138689 55.757096,52.9210092 55.757096,49.6119387 L55.757096,43.6100086 L59.781095,43.6100086 L59.781095,49.6119387 C59.781095,55.1276843 55.2680749,59.6145275 49.7201499,59.6145275" id="Fill-4"></path>
            </g>
            <path d="M45.6350166,67.870881 L45.6350166,61.6021376 L43.2396431,61.6021376 L43.2396431,60.9015983 L48.8968018,60.9015983 L48.8968018,61.6021376 L46.5451129,61.6021376 L46.5451129,67.870881 L45.6350166,67.870881 Z M50.6223444,67.870881 L49.7049673,67.870881 L49.7049673,60.9015983 L50.6223444,60.9015983 L50.6223444,63.9998597 L53.8550065,63.9998597 L53.8550065,60.9015983 L54.7651028,60.9015983 L54.7651028,67.870881 L53.8550065,67.870881 L53.8550065,64.700399 L50.6223444,64.700399 L50.6223444,67.870881 Z M56.0974838,67.870881 L56.0974838,60.9015983 L60.0727845,60.9015983 L60.0727845,61.6671361 L57.0148609,61.6671361 L57.0148609,63.8626407 L59.6869037,63.8626407 L59.6869037,64.56318 L57.0148609,64.56318 L57.0148609,67.1053432 L60.3203307,67.1053432 L60.3203307,67.870881 L56.0974838,67.870881 Z M63.5457121,67.870881 L62.6938619,67.870881 L65.577047,60.9015983 L66.5017049,60.9015983 L69.1591861,67.870881 L68.1690013,67.870881 L67.4409243,65.9498145 L64.339316,65.9498145 L63.5457121,67.870881 Z M64.6159853,65.2564972 L67.1715358,65.2564972 L65.9410856,62.0137947 L64.6159853,65.2564972 Z M70.877448,67.870881 L69.9600709,67.870881 L69.9600709,60.9015983 L71.9185982,60.9015983 C72.6660943,60.9015983 73.1927315,60.9762254 73.4985254,61.125482 C73.8043193,61.2747385 74.0348747,61.4962127 74.1901986,61.789911 C74.3455225,62.0836094 74.4231832,62.4230425 74.4231832,62.8082207 C74.4231832,63.4630236 74.1986951,64.0118943 73.749712,64.4548492 C73.3007289,64.8978041 72.634545,65.1192782 71.7511404,65.1192782 L70.877448,65.1192782 L70.877448,67.870881 Z M70.877448,64.4187389 L71.4963135,64.4187389 C72.3020561,64.4187389 72.833547,64.2646699 73.0908022,63.9565274 C73.3480574,63.6483849 73.4766831,63.2800638 73.4766831,62.851553 C73.4766831,62.4760043 73.3735398,62.1738847 73.1672503,61.9451852 C72.9609608,61.7164856 72.5520283,61.6021376 71.9404405,61.6021376 L70.877448,61.6021376 L70.877448,64.4187389 Z M76.2870605,67.870881 L75.3696834,67.870881 L75.3696834,60.9015983 L77.3282107,60.9015983 C78.0757069,60.9015983 78.602344,60.9762254 78.9081379,61.125482 C79.2139318,61.2747385 79.4444872,61.4962127 79.5998111,61.789911 C79.755135,62.0836094 79.8327957,62.4230425 79.8327957,62.8082207 C79.8327957,63.4630236 79.6083076,64.0118943 79.1593245,64.4548492 C78.7103414,64.8978041 78.0441575,65.1192782 77.160753,65.1192782 L76.2870605,65.1192782 L76.2870605,67.870881 Z M76.2870605,64.4187389 L76.905926,64.4187389 C77.7116686,64.4187389 78.2431595,64.2646699 78.5004147,63.9565274 C78.7576699,63.6483849 78.8862956,63.2800638 78.8862956,62.851553 C78.8862956,62.4760043 78.7831523,62.1738847 78.5768628,61.9451852 C78.3705733,61.7164856 77.9616408,61.6021376 77.350053,61.6021376 L76.2870605,61.6021376 L76.2870605,64.4187389 Z M43.8839912,77.3710542 C44.4373326,77.5058665 44.8389844,77.733359 45.0889588,78.0535383 C45.3389331,78.3737177 45.4639185,78.7336132 45.4639185,79.1332355 C45.4639185,79.4654517 45.3777635,79.7784043 45.2054511,80.0721026 C45.0331387,80.365801 44.7880218,80.6005154 44.4700933,80.7762529 C44.1521647,80.9519905 43.6048989,81.0398579 42.8282795,81.0398579 L40.7168561,81.0398579 L40.7168561,74.0705752 L42.5880141,74.0705752 C43.4374416,74.0705752 44.0077629,74.1307584 44.2989952,74.2511266 C44.5902274,74.3714948 44.8098618,74.549637 44.9579049,74.7855586 C45.105948,75.0214802 45.1799684,75.2838789 45.1799684,75.5727626 C45.1799684,75.8953493 45.0865328,76.2143202 44.8996587,76.5296848 C44.7127847,76.8450494 44.3742322,77.1255031 43.8839912,77.3710542 L43.8839912,77.3710542 Z M41.6342332,77.0966161 L42.5152064,77.0966161 C42.9666164,77.0966161 43.3051689,77.0376366 43.5308739,76.9196758 C43.7565789,76.8017149 43.9361694,76.6307947 44.0696509,76.4069099 C44.2031324,76.1830251 44.2698721,75.9531253 44.2698721,75.7172037 C44.2698721,75.4572084 44.1655154,75.2345306 43.956799,75.0491636 C43.7480825,74.8637966 43.3694862,74.7711145 42.8209987,74.7711145 L41.6342332,74.7711145 L41.6342332,77.0966161 Z M41.6342332,80.3465407 L42.9229295,80.3465407 C43.5345173,80.3465407 43.9531574,80.2333963 44.1788625,80.0071041 C44.4045675,79.7808119 44.5174183,79.5135986 44.5174183,79.2054561 C44.5174183,78.9550902 44.4446113,78.7251905 44.2989952,78.5157498 C44.153379,78.3063092 43.937385,78.1341853 43.6510066,77.9993729 C43.3646282,77.8645606 42.9180787,77.7971554 42.3113448,77.7971554 L41.6342332,77.7971554 L41.6342332,80.3465407 Z M46.5196302,74.0705752 L47.4370073,74.0705752 L47.4370073,78.5482491 C47.4370073,79.203052 47.5013201,79.6423892 47.6299477,79.8662741 C47.7585753,80.0901589 47.9587945,80.2598755 48.2306113,80.3754289 C48.502428,80.4909824 48.8057904,80.5487582 49.1407076,80.5487582 C49.4610631,80.5487582 49.7462237,80.4909824 49.9961981,80.3754289 C50.2461725,80.2598755 50.4318303,80.0757149 50.5531771,79.8229417 C50.6745238,79.5701685 50.7351963,79.0393528 50.7351963,78.2304787 L50.7351963,74.0705752 L51.5797657,74.0705752 L51.5797657,78.4688065 C51.5797657,79.2824954 51.4851166,79.8542356 51.2958156,80.1840445 C51.1065147,80.5138533 50.8334885,80.7738446 50.476729,80.9640264 C50.1199694,81.1542081 49.6722065,81.2492975 49.1334268,81.2492975 C48.6334781,81.2492975 48.1747941,81.1734667 47.7573612,81.0218028 C47.3399282,80.8701389 47.0292851,80.6330171 46.8254225,80.3104304 C46.6215599,79.9878437 46.5196302,79.4413804 46.5196302,78.671024 L46.5196302,74.0705752 Z M52.6354774,79.4726721 L53.5455737,79.4726721 L53.5455737,79.5160044 C53.5455737,79.9011826 53.683907,80.1695996 53.9605777,80.3212635 C54.2372483,80.4729274 54.6037101,80.5487582 55.059974,80.5487582 C55.4579915,80.5487582 55.7916901,80.4332065 56.06108,80.2020996 C56.3304698,79.9709927 56.4651627,79.6676694 56.4651627,79.2921207 C56.4651627,78.9887929 56.3486716,78.7384308 56.1156857,78.541027 C55.8826999,78.3484379 55.5307995,78.1582591 55.059974,77.9704847 L54.6886547,77.8188216 C54.1935598,77.616603 53.8222443,77.4155912 53.5746968,77.21578 C53.3271494,77.0159688 53.142705,76.7944947 53.0213583,76.551351 C52.9000115,76.3082073 52.839339,76.0373829 52.839339,75.7388698 C52.839339,75.2092498 53.0274237,74.7638943 53.4035987,74.4027897 C53.7797737,74.0416852 54.3682968,73.8611356 55.1691856,73.8611356 C55.9021201,73.8611356 56.4178362,73.995946 56.7163493,74.2655707 C57.0148624,74.5351954 57.1641167,74.8505553 57.1641167,75.2116598 L57.1641167,75.2549922 L56.2540204,75.2549922 L56.2540204,75.2116598 C56.2540204,75.0961064 56.2079093,74.982962 56.1156857,74.8722233 C56.0234622,74.7614845 55.8851289,74.6808391 55.7006818,74.6302844 C55.5162347,74.5797298 55.3148021,74.5544529 55.0963779,74.5544529 C54.6449678,74.5544529 54.3112692,74.6663936 54.0952719,74.8902784 C53.8792746,75.1141632 53.7712776,75.3681363 53.7712776,75.6522052 C53.7712776,75.8447943 53.8222425,76.0253438 53.9241738,76.1938593 C54.0261051,76.3623747 54.1668653,76.5019997 54.3464585,76.6127384 C54.5260517,76.7234772 54.8294141,76.8727315 55.2565548,77.0605058 L55.6861203,77.2410572 C56.37537,77.5395703 56.8364809,77.8525228 57.0694667,78.1799243 C57.2975986,78.5073257 57.4116629,78.8587956 57.4116629,79.2343443 C57.4116629,79.5858194 57.3182273,79.9252525 57.1313532,80.252654 C56.9444792,80.5800554 56.684801,80.8280102 56.3523108,80.9965256 C56.0198206,81.1650411 55.5769115,81.2492975 55.0235702,81.2492975 C54.4993521,81.2492975 54.0612967,81.1879107 53.7093911,81.0651351 C53.3574854,80.9423596 53.0905265,80.7377367 52.9085063,80.4512605 C52.7264861,80.1647842 52.6354774,79.8530353 52.6354774,79.5160044 L52.6354774,79.4726721 Z M59.3410671,81.0398579 L58.42369,81.0398579 L58.42369,74.0705752 L59.3410671,74.0705752 L59.3410671,81.0398579 Z M61.5180175,81.0398579 L60.6734481,81.0398579 L60.6734481,74.0705752 L61.5835444,74.0705752 L64.7943642,79.0249047 L65.085595,79.5737808 L65.0710335,79.0249047 L65.0710335,74.0705752 L65.9156029,74.0705752 L65.9156029,81.0398579 L65.0127873,81.0398579 L61.7946867,76.0638623 L61.5034559,75.500542 L61.5180175,76.0638623 L61.5180175,81.0398579 Z M67.2479839,81.0398579 L67.2479839,74.0705752 L71.2232846,74.0705752 L71.2232846,74.836113 L68.165361,74.836113 L68.165361,77.0316176 L70.8374037,77.0316176 L70.8374037,77.7321569 L68.165361,77.7321569 L68.165361,80.2743201 L71.4708308,80.2743201 L71.4708308,81.0398579 L67.2479839,81.0398579 Z M72.417331,79.4726721 L73.3274273,79.4726721 L73.3274273,79.5160044 C73.3274273,79.9011826 73.4657605,80.1695996 73.7424312,80.3212635 C74.0191019,80.4729274 74.3855636,80.5487582 74.8418275,80.5487582 C75.239845,80.5487582 75.5735436,80.4332065 75.8429335,80.2020996 C76.1123233,79.9709927 76.2470162,79.6676694 76.2470162,79.2921207 C76.2470162,78.9887929 76.1305251,78.7384308 75.8975393,78.541027 C75.6645534,78.3484379 75.3126531,78.1582591 74.8418275,77.9704847 L74.4705082,77.8188216 C73.9754134,77.616603 73.6040978,77.4155912 73.3565503,77.21578 C73.1090029,77.0159688 72.9245586,76.7944947 72.8032118,76.551351 C72.681865,76.3082073 72.6211925,76.0373829 72.6211925,75.7388698 C72.6211925,75.2092498 72.8092772,74.7638943 73.1854522,74.4027897 C73.5616273,74.0416852 74.1501503,73.8611356 74.9510391,73.8611356 C75.6839737,73.8611356 76.1996897,73.995946 76.4982028,74.2655707 C76.7967159,74.5351954 76.9459702,74.8505553 76.9459702,75.2116598 L76.9459702,75.2549922 L76.0358739,75.2549922 L76.0358739,75.2116598 C76.0358739,75.0961064 75.9897628,74.982962 75.8975393,74.8722233 C75.8053157,74.7614845 75.6669825,74.6808391 75.4825353,74.6302844 C75.2980882,74.5797298 75.0966556,74.5544529 74.8782314,74.5544529 C74.4268214,74.5544529 74.0931227,74.6663936 73.8771254,74.8902784 C73.6611282,75.1141632 73.5531312,75.3681363 73.5531312,75.6522052 C73.5531312,75.8447943 73.604096,76.0253438 73.7060273,76.1938593 C73.8079586,76.3623747 73.9487188,76.5019997 74.128312,76.6127384 C74.3079053,76.7234772 74.6112677,76.8727315 75.0384083,77.0605058 L75.4679738,77.2410572 C76.1572235,77.5395703 76.6183344,77.8525228 76.8513202,78.1799243 C77.0794522,78.5073257 77.1935164,78.8587956 77.1935164,79.2343443 C77.1935164,79.5858194 77.1000808,79.9252525 76.9132068,80.252654 C76.7263327,80.5800554 76.4666545,80.8280102 76.1341643,80.9965256 C75.8016741,81.1650411 75.358765,81.2492975 74.8054237,81.2492975 C74.2812056,81.2492975 73.8431503,81.1879107 73.4912446,81.0651351 C73.1393389,80.9423596 72.87238,80.7377367 72.6903598,80.4512605 C72.5083397,80.1647842 72.417331,79.8530353 72.417331,79.5160044 L72.417331,79.4726721 Z M78.0380858,79.4726721 L78.9481821,79.4726721 L78.9481821,79.5160044 C78.9481821,79.9011826 79.0865154,80.1695996 79.363186,80.3212635 C79.6398567,80.4729274 80.0063185,80.5487582 80.4625824,80.5487582 C80.8605998,80.5487582 81.1942985,80.4332065 81.4636883,80.2020996 C81.7330782,79.9709927 81.8677711,79.6676694 81.8677711,79.2921207 C81.8677711,78.9887929 81.7512799,78.7384308 81.5182941,78.541027 C81.2853083,78.3484379 80.9334079,78.1582591 80.4625824,77.9704847 L80.0912631,77.8188216 C79.5961682,77.616603 79.2248526,77.4155912 78.9773052,77.21578 C78.7297578,77.0159688 78.5453134,76.7944947 78.4239666,76.551351 C78.3026199,76.3082073 78.2419474,76.0373829 78.2419474,75.7388698 C78.2419474,75.2092498 78.4300321,74.7638943 78.8062071,74.4027897 C79.1823821,74.0416852 79.7709052,73.8611356 80.5717939,73.8611356 C81.3047285,73.8611356 81.8204446,73.995946 82.1189577,74.2655707 C82.4174708,74.5351954 82.5667251,74.8505553 82.5667251,75.2116598 L82.5667251,75.2549922 L81.6566288,75.2549922 L81.6566288,75.2116598 C81.6566288,75.0961064 81.6105177,74.982962 81.5182941,74.8722233 C81.4260706,74.7614845 81.2877373,74.6808391 81.1032902,74.6302844 C80.9188431,74.5797298 80.7174104,74.5544529 80.4989862,74.5544529 C80.0475762,74.5544529 79.7138776,74.6663936 79.4978803,74.8902784 C79.281883,75.1141632 79.173886,75.3681363 79.173886,75.6522052 C79.173886,75.8447943 79.2248509,76.0253438 79.3267822,76.1938593 C79.4287135,76.3623747 79.5694736,76.5019997 79.7490669,76.6127384 C79.9286601,76.7234772 80.2320225,76.8727315 80.6591632,77.0605058 L81.0887287,77.2410572 C81.7779784,77.5395703 82.2390892,77.8525228 82.4720751,78.1799243 C82.700207,78.5073257 82.8142713,78.8587956 82.8142713,79.2343443 C82.8142713,79.5858194 82.7208356,79.9252525 82.5339616,80.252654 C82.3470876,80.5800554 82.0874093,80.8280102 81.7549192,80.9965256 C81.422429,81.1650411 80.9795199,81.2492975 80.4261785,81.2492975 C79.9019604,81.2492975 79.4639051,81.1879107 79.1119995,81.0651351 C78.7600938,80.9423596 78.4931349,80.7377367 78.3111147,80.4512605 C78.1290945,80.1647842 78.0380858,79.8530353 78.0380858,79.5160044 L78.0380858,79.4726721 Z" id="THE-APP" fill="#FFFFFF" sketch:type="MSShapeGroup"></path>
        </g>
    </g>
</svg>