<?xml version="1.0" encoding="UTF-8" standalone="no"?>
<svg width="126px" height="146px" viewBox="0 0 126 146" version="1.1" xmlns="http://www.w3.org/2000/svg" xmlns:xlink="http://www.w3.org/1999/xlink" xmlns:sketch="http://www.bohemiancoding.com/sketch/ns">
    <!-- Generator: Sketch 3.3.3 (12072) - http://www.bohemiancoding.com/sketch -->
    <title>why_icon</title>
    <desc>Created with Sketch.</desc>
    <defs></defs>
    <g id="Page-1" stroke="none" stroke-width="1" fill="none" fill-rule="evenodd" sketch:type="MSPage">
        <g id="icons" sketch:type="MSArtboardGroup" transform="translate(-851.585783, -52.822131)">
            <g id="why_icon" sketch:type="MSLayerGroup" transform="translate(852.585783, 54.912255)">
                <path d="M61.7928917,0 L123.062789,35.4549378 L123.062789,106.364814 L61.7928917,141.819751 L0.522994527,106.364814 L0.522994527,35.4549378 L61.7928917,0 Z" id="Polygon-1-Copy-4" stroke="#BEBEBE" stroke-width="2" sketch:type="MSShapeGroup"></path>
                <path d="M61.3782524,36.8013279 C42.8126229,36.8013279 27.7620238,51.886282 27.7620238,70.4951876 C27.7620238,89.1031956 42.8126229,104.18815 61.3782524,104.18815 C79.9438819,104.18815 94.9953766,89.1031956 94.9953766,70.4951876 C94.9953766,51.886282 79.9438819,36.8013279 61.3782524,36.8013279 L61.3782524,36.8013279 L61.3782524,36.8013279 Z M65.5219584,73.1179554 L65.5219584,88.636447 C65.5210628,88.636447 65.7395768,93.4448547 69.4471503,95.1933665 L53.3093545,95.1933665 C57.016928,93.4448547 57.2345465,88.636447 57.2345465,88.636447 L57.2345465,73.1179554 C43.9320593,63.0631145 40.2244858,54.5386703 40.2244858,54.5386703 L55.4900167,54.5386703 C48.9480301,57.8175789 61.3782524,66.3420231 61.3782524,66.3420231 C61.3782524,66.3420231 73.8084747,57.8175789 67.2664881,54.5386703 L82.532019,54.5386703 C82.532019,54.5386703 78.8244455,63.0631145 65.5219584,73.1179554 L65.5219584,73.1179554 L65.5219584,73.1179554 Z" id="Imported-Layers" fill="#BEBEBE" sketch:type="MSShapeGroup"></path>
            </g>
        </g>
    </g>
</svg>