<?xml version="1.0" encoding="UTF-8" standalone="no"?>
<svg width="126px" height="146px" viewBox="0 0 126 146" version="1.1" xmlns="http://www.w3.org/2000/svg" xmlns:xlink="http://www.w3.org/1999/xlink" xmlns:sketch="http://www.bohemiancoding.com/sketch/ns">
    <!-- Generator: Sketch 3.3.3 (12072) - http://www.bohemiancoding.com/sketch -->
    <title>bu_icon</title>
    <desc>Created with Sketch.</desc>
    <defs></defs>
    <g id="Page-1" stroke="none" stroke-width="1" fill="none" fill-rule="evenodd" sketch:type="MSPage">
        <g id="Desktop-HD" sketch:type="MSArtboardGroup" transform="translate(-575.000000, -593.000000)">
            <g id="bu_icon" sketch:type="MSLayerGroup" transform="translate(576.000000, 595.000000)">
                <path d="M62,0 L123.475253,35.5 L123.475253,106.5 L62,142 L0.524747423,106.5 L0.524747423,35.5 L62,0 Z" id="Polygon-1-Copy-16" stroke="#84A5AB" stroke-width="2" sketch:type="MSShapeGroup"></path>
                <path d="M33.6965507,51.6664304 C33.7837101,51.657443 33.8717681,51.6412658 33.9598261,51.6412658 C38.4876232,51.6493544 43.0163188,51.6394684 47.5441159,51.6772152 C49.4032174,51.6924937 51.2731014,51.799443 53.0513333,52.3926076 C56.3687826,53.4971519 58.7301739,55.619962 59.5802029,59.1016582 C60.2433333,61.8158354 59.9072754,64.4248608 58.262029,66.7732532 C57.5881159,67.7348987 56.7255072,68.4952278 55.7317101,69.1126582 C55.6571304,69.1584937 55.5816522,69.2052278 55.4729275,69.2735316 C55.7074493,69.3687975 55.9141159,69.4505823 56.118087,69.535962 C58.4749855,70.5263671 60.2469275,72.1081392 61.1436812,74.5553924 C61.7816522,76.2953418 61.8472464,78.0928101 61.5848696,79.9073544 C61.3117101,81.7955949 60.7042899,83.5768861 59.4867536,85.0615949 C57.7112174,87.2275443 55.4423768,88.6565316 52.6775362,89.2380127 C50.6818551,89.6568228 48.652029,89.6792911 46.6266957,89.6882785 C42.443942,89.7053544 38.262087,89.6927722 34.0802319,89.6936709 C33.9517391,89.6936709 33.8241449,89.7062532 33.6965507,89.7125443 L33.6965507,51.6664304 L33.6965507,51.6664304 Z M43.0181159,81.1583924 L43.3631594,81.1583924 C44.8664348,81.1583924 46.3706087,81.1889494 47.872087,81.1449114 C48.5873333,81.1242405 49.3151594,81.0325696 50.0052464,80.8501266 C51.2093043,80.5319747 52.0386667,79.759962 52.3010435,78.5044304 C52.3962899,78.0469747 52.4115652,77.5598608 52.3846087,77.0916203 C52.3244058,76.0463924 51.8266087,75.2519114 50.8831304,74.7683924 C50.0241159,74.3280127 49.0905217,74.2309494 48.1461449,74.2237595 C46.5341449,74.2120759 44.9221449,74.2174684 43.3101449,74.2174684 C43.2148986,74.2174684 43.1205507,74.2264557 43.0181159,74.2309494 L43.0181159,81.1583924 L43.0181159,81.1583924 Z M43.0208116,66.0893165 L43.2427536,66.0893165 C44.4773623,66.0884177 45.7128696,66.0983038 46.9474783,66.0812278 C47.359913,66.0758354 47.7777391,66.0344937 48.1829855,65.9572025 C49.3250435,65.7388101 50.1921449,65.1663165 50.4545217,63.9602152 C50.5488696,63.5234304 50.5695362,63.0551899 50.5326957,62.608519 C50.4446377,61.5444177 49.8902319,60.7948734 48.8586957,60.4641392 C48.4588406,60.3356203 48.032029,60.234962 47.6151014,60.2232785 C46.1342899,60.1819367 44.6516812,60.1837342 43.169971,60.1711519 C43.1232464,60.1702532 43.0765217,60.1864304 43.0208116,60.1972152 L43.0208116,66.0893165 L43.0208116,66.0893165 Z" id="Fill-1-Copy-2" fill="#84A5AB" sketch:type="MSShapeGroup"></path>
                <path d="M90.8434783,75.5269241 C90.8255072,75.641962 90.7913623,75.757 90.7922609,75.8711392 C90.7949565,77.4780759 90.6386087,79.0652405 90.2261739,80.6209494 C89.7095072,82.5649114 88.8594783,84.3408101 87.552087,85.8848354 C86.1853913,87.498962 84.4952174,88.6448481 82.5273913,89.3925949 C80.9351594,89.9983418 79.2809275,90.2832405 77.5826667,90.356038 C75.4423188,90.4477089 73.3415072,90.2311139 71.3143768,89.5130253 C67.5081159,88.1649241 64.9697101,85.5460127 63.6290725,81.7506582 C62.9264058,79.7608608 62.7161449,77.7000633 62.7197391,75.5997215 C62.7323188,67.7753418 62.7242319,59.950962 62.7242319,52.127481 C62.7242319,51.6817089 62.7269275,51.6817089 63.1833913,51.6817089 L64.9337681,51.6817089 C65.3596812,51.6817089 65.3605797,51.6817089 65.3605797,52.0960253 C65.3605797,58.4959114 65.3596812,64.8957975 65.3596812,71.2965823 C65.3596812,73.0275443 65.3291304,74.7594051 65.3722609,76.4894684 C65.4288696,78.7803418 65.8898261,80.980443 67.1118551,82.9621519 C68.5728986,85.3312152 70.7258261,86.7242532 73.4008116,87.3524684 C74.9013913,87.7056709 76.4217391,87.7901519 77.9609565,87.6697215 C79.4714203,87.5519873 80.9252754,87.2374304 82.300058,86.5912405 C84.8088116,85.4121013 86.4504638,83.465443 87.3633913,80.8752911 C87.9007246,79.351038 88.1253623,77.7701646 88.1271594,76.1632278 C88.1352464,69.0012152 88.1244638,61.8401013 88.1271594,54.6780886 C88.1271594,54.4219494 88.04,54.3428608 87.8018841,54.3707215 C87.6967536,54.3824051 87.5889275,54.372519 87.4523478,54.372519 C87.446058,54.5028354 87.4352754,54.6079873 87.4352754,54.7131392 C87.4271884,59.0630127 87.4226957,63.4128861 87.411913,67.7627595 C87.4047246,70.858 87.4568406,73.9559367 87.358,77.0493797 C87.2744348,79.6278481 86.4935942,82.0032025 84.700087,83.9498608 C83.4070725,85.3527848 81.7923768,86.2191646 79.9458551,86.6298861 C77.1001449,87.2616962 74.2903768,87.1673291 71.5965217,85.9522405 C69.1704348,84.8575823 67.6258261,82.9567595 66.7713043,80.4618734 C66.1665797,78.6940633 66.0982899,76.8669367 66.1018841,75.0218354 C66.1153623,68.315481 66.1072754,61.6091266 66.1072754,54.9027722 C66.1072754,54.8434557 66.1135652,54.7832405 66.1063768,54.7248228 C66.074029,54.457 66.2043188,54.372519 66.4532174,54.3913924 C66.6302319,54.4048734 66.8090435,54.3940886 66.9869565,54.3940886 C68.5603188,54.3940886 70.1327826,54.3931899 71.7052464,54.3940886 C72.1230725,54.3940886 72.123971,54.3949873 72.123971,54.8236835 C72.123971,62.1537595 72.1248696,69.4838354 72.1221739,76.8139114 C72.1221739,77.6047975 72.247971,78.3687215 72.5885217,79.0868101 C73.0647536,80.0933924 73.8626667,80.7395823 74.9211594,81.0451519 C76.1638551,81.4046456 77.4182319,81.4118354 78.6555362,81.0136962 C80.2765217,80.4924304 81.0834203,79.2998101 81.3044638,77.6677089 C81.3664638,77.2102532 81.3691594,76.7411139 81.3691594,76.2782658 C81.3709565,70.006 81.3673623,63.7346329 81.3655652,57.4632658 L81.3655652,57.1073671 C81.4868696,57.1010759 81.592,57.0911899 81.6971304,57.0911899 C82.3692464,57.0893924 83.0422609,57.1028734 83.7143768,57.084 C83.9866377,57.0768101 84.0648116,57.155 84.063913,57.4309114 C84.0531304,60.7544304 84.0549275,64.0779494 84.0531304,67.4014684 C84.0522319,70.4778354 84.0576232,73.5542025 84.0477391,76.6305696 C84.0441449,77.8249873 83.8698261,78.992443 83.3666377,80.0906962 C82.5606377,81.8468228 81.2164058,83.0043924 79.3842609,83.5661013 C77.6114203,84.1089367 75.8125217,84.1179241 74.0486667,83.540038 C71.5722609,82.7275823 70.0995362,80.9777468 69.6430725,78.4334304 C69.4687536,77.461 69.4822319,76.4481266 69.4750435,75.4523291 C69.4543768,72.7534304 69.466058,70.0536329 69.4678551,67.3547342 C69.4687536,65.7621772 69.4777391,64.170519 69.4768406,62.5788608 C69.4750435,60.8496962 69.4588696,59.1196329 69.4678551,57.3904684 C69.4687536,57.1046709 69.3771014,57.0390633 69.1129275,57.0381646 C68.8451594,57.0372658 68.7337391,57.0911899 68.7346377,57.3958608 C68.7436232,62.8556709 68.7409275,68.3163797 68.7409275,73.7770886 C68.7409275,74.9139873 68.7058841,76.0535823 68.7508116,77.1895823 C68.8370725,79.364519 69.5361449,81.2914051 71.2011594,82.7806076 C72.3171594,83.7782025 73.6506087,84.321038 75.1125507,84.5538101 C76.7065797,84.8081519 78.2898261,84.7281646 79.820058,84.192519 C82.4653913,83.2668228 84.0252754,81.3767848 84.5644058,78.6491266 C84.6973913,77.9768734 84.745913,77.2767595 84.7468116,76.5901266 C84.7557971,68.4089494 84.7486087,60.2286709 84.745913,52.0474937 C84.745913,51.647557 84.745913,51.6466582 85.1466667,51.6466582 C86.9168116,51.6466582 88.6878551,51.6457595 90.458,51.647557 C90.5864928,51.647557 90.7149855,51.6592405 90.8434783,51.6664304 L90.8434783,71.6686582 C90.8264058,71.7549367 90.7949565,71.8403165 90.7949565,71.9265949 C90.7904638,72.8828481 90.7886667,73.84 90.7913623,74.7971519 C90.7922609,74.8816329 90.8255072,74.9670127 90.8434783,75.0523924 L90.8434783,75.5269241" id="Fill-2-Copy-2" fill="#84A5AB" sketch:type="MSShapeGroup"></path>
            </g>
        </g>
    </g>
</svg>