<?xml version="1.0" encoding="UTF-8" standalone="no"?>
<svg width="70px" height="70px" viewBox="0 0 70 70" version="1.1" xmlns="http://www.w3.org/2000/svg" xmlns:xlink="http://www.w3.org/1999/xlink" xmlns:sketch="http://www.bohemiancoding.com/sketch/ns">
    <!-- Generator: Sketch 3.3.3 (12072) - http://www.bohemiancoding.com/sketch -->
    <title>email_icon</title>
    <desc>Created with Sketch.</desc>
    <defs></defs>
    <g id="Page-1" stroke="none" stroke-width="1" fill="none" fill-rule="evenodd" sketch:type="MSPage">
        <g id="Desktop-HD-Copy" sketch:type="MSArtboardGroup" transform="translate(-794.000000, -2330.000000)">
            <g id="email_icon" sketch:type="MSLayerGroup" transform="translate(794.000000, 2330.000000)">
                <path d="M69.8177857,34.7826711 C69.8177857,53.6882951 54.2990885,69.0150307 35.1566788,69.0150307 C16.0130113,69.0150307 0.495571945,53.6882951 0.495571945,34.7826711 C0.495571945,15.8758049 16.0130113,0.550311547 35.1566788,0.550311547 C54.2990885,0.550311547 69.8177857,15.8758049 69.8177857,34.7826711" id="Fill-1" fill="#84A5AB" sketch:type="MSShapeGroup"></path>
                <path d="M18.787711,24.1106023 L51.5243888,24.1106023 C51.6426217,24.1441427 51.7608546,24.1776832 51.9029856,24.218677 C51.8161976,24.2944536 51.7558234,24.3503543 51.6941913,24.4025283 C50.5948769,25.3317225 49.4930469,26.2596745 48.3949903,27.1888687 C44.1059031,30.8174466 39.8407141,34.4733538 35.4308785,37.9590744 C35.3440905,38.0273975 35.2598181,38.0957206 35.1730302,38.1640437 C34.9680093,37.998826 34.778082,37.8435462 34.5868968,37.6907509 C33.1542663,36.5379538 31.7015109,35.4112437 30.2940363,34.2298751 C26.4866853,31.0373228 22.6994591,27.821168 18.9046861,24.6137088 C18.7562661,24.4882427 18.6103617,24.3602922 18.4380435,24.2124658 C18.577659,24.171472 18.6833139,24.140416 18.787711,24.1106023" id="Fill-2" fill="#FFFFFF" sketch:type="MSShapeGroup"></path>
                <path d="M51.5243888,48.525553 L18.8241871,48.525553 C18.7160166,48.4920125 18.6078461,48.4584721 18.4745196,48.416236 C22.501985,44.6025645 26.5055523,40.8112534 30.512893,37.0162155 C32.0763344,38.2671494 33.6234245,39.505661 35.174288,40.746657 C36.7352138,39.4969653 38.2835617,38.2584538 39.835683,37.0162155 C43.8518282,40.8187068 47.8528799,44.6087757 51.8753141,48.4187205 C51.733183,48.4609566 51.6300437,48.4932548 51.5243888,48.525553" id="Fill-3" fill="#FFFFFF" sketch:type="MSShapeGroup"></path>
                <path d="M16.8456728,26.1329662 C16.8821489,25.9714752 16.918625,25.8099842 16.9613901,25.621164 C20.9511216,28.9901142 24.9270173,32.3491264 28.9230378,35.7242877 C24.9446265,39.5031765 20.9775353,43.2708851 16.9903194,47.0572273 C16.9374919,46.8671649 16.8922112,46.7019472 16.8456728,46.5367295 L16.8456728,26.1329662" id="Fill-4" fill="#FFFFFF" sketch:type="MSShapeGroup"></path>
                <path d="M53.466427,46.6062949 C53.4337243,46.7466678 53.4010216,46.8857985 53.3607721,47.0597118 C49.3735562,43.2721274 45.4077228,39.5069032 41.4255381,35.7242877 C45.4064651,32.3516109 49.3735562,28.9901142 53.3582565,25.6124683 C53.398506,25.7540835 53.4324665,25.8733384 53.466427,25.9938355 L53.466427,46.6062949" id="Fill-5" fill="#FFFFFF" sketch:type="MSShapeGroup"></path>
            </g>
        </g>
    </g>
</svg>