<?xml version="1.0" encoding="UTF-8" standalone="no"?>
<svg width="126px" height="145px" viewBox="0 0 126 145" version="1.1" xmlns="http://www.w3.org/2000/svg" xmlns:xlink="http://www.w3.org/1999/xlink" xmlns:sketch="http://www.bohemiancoding.com/sketch/ns">
    <!-- Generator: Sketch 3.3.3 (12072) - http://www.bohemiancoding.com/sketch -->
    <title>foolproof_icon</title>
    <desc>Created with Sketch.</desc>
    <defs></defs>
    <g id="Page-1" stroke="none" stroke-width="1" fill="none" fill-rule="evenodd" sketch:type="MSPage">
        <g id="icons" sketch:type="MSArtboardGroup" transform="translate(-358.585783, -53.822131)">
            <g id="foolproof_icon" sketch:type="MSLayerGroup" transform="translate(359.585783, 54.912255)">
                <path d="M62,0 L123.475253,35.5 L123.475253,106.5 L62,142 L0.524747423,106.5 L0.524747423,35.5 L62,0 Z" id="Polygon-1-Copy-5" stroke="#84A5AB" stroke-width="2" sketch:type="MSShapeGroup"></path>
                <path d="M72.9910725,58.5687089 L71.601913,58.5687089 C64.8493043,58.5696076 58.0984928,58.5705063 51.3467826,58.5687089 C49.8866377,58.5687089 49.8848406,58.5624177 49.883942,57.0929873 C49.8830435,54.3203924 49.8830435,51.5477975 49.8848406,48.7743038 C49.8848406,47.1889367 49.8866377,47.188038 51.4231594,47.188038 C58.1092754,47.1871392 64.7953913,47.188038 71.4824058,47.1871392 C72.8742609,47.1862405 72.9901739,47.0703038 72.9910725,45.683557 C72.9928696,42.4948481 72.9910725,39.3052405 72.9910725,35.9493671 C73.2884928,36.1452911 73.4807826,36.2306709 73.620058,36.3699747 C76.9869275,39.7303418 80.3672754,43.0781266 83.6865217,46.4852278 C84.0890725,46.8986456 84.3397681,47.6329114 84.3523478,48.2260759 C84.4170435,51.2907595 84.3667246,54.3581392 84.3909855,57.4246203 C84.3981739,58.2586456 84.0881739,58.588481 83.239942,58.5794937 C80.369971,58.5498354 77.4991014,58.5678101 74.6291304,58.5732025 C74.2508406,58.5741013 73.8716522,58.605557 73.2516522,58.6334177 C73.611971,59.0333544 73.8069565,59.2697215 74.0226087,59.4863165 C77.1531594,62.6282911 80.2693333,65.7837468 83.4304348,68.8942658 C84.1187246,69.5719114 84.3990725,70.3007848 84.3909855,71.2372658 C84.3676232,74.1401772 84.3864928,77.0439873 84.3811014,79.9468987 C84.3793043,81.2626456 84.3002319,81.3372405 83.0081159,81.3381392 C76.2887536,81.3399367 69.5702899,81.3381392 62.8509275,81.339038 C61.3764058,81.3399367 61.2317391,81.4846329 61.2317391,82.9666456 C61.229942,89.686481 61.2317391,96.4072152 61.2290435,103.127051 C61.2290435,104.471557 61.2083768,104.487734 59.8533623,104.488633 C56.8522029,104.49043 53.8510435,104.524582 50.8516812,104.458076 C50.2613333,104.444595 49.5308116,104.188456 49.1165797,103.784924 C45.7551014,100.505443 42.4529275,97.1657468 39.1363768,93.8395316 C38.9872174,93.6903418 38.8766957,93.5025063 38.6376812,93.1879494 C39.1318841,93.1582911 39.4715362,93.1196456 39.8111884,93.1196456 C42.5841159,93.1142532 45.3561449,93.1196456 48.1290725,93.1151519 C49.7114203,93.1124557 49.8830435,92.9416962 49.8830435,91.4030633 C49.883942,84.7155823 49.8830435,78.0272025 49.8848406,71.3397215 C49.8848406,69.9610633 49.9117971,69.935 51.327913,69.935 C58.0472754,69.9332025 64.7657391,69.9341013 71.4851014,69.9323038 C72.8751594,69.9323038 72.9901739,69.8154684 72.9910725,68.4260253 C72.9928696,65.1995696 72.9910725,61.9731139 72.9910725,58.5687089" id="Imported-Layers" fill="#84A5AB" sketch:type="MSShapeGroup"></path>
            </g>
        </g>
    </g>
</svg>