<?xml version="1.0" encoding="UTF-8" standalone="no"?>
<svg width="70px" height="69px" viewBox="0 0 70 69" version="1.1" xmlns="http://www.w3.org/2000/svg" xmlns:xlink="http://www.w3.org/1999/xlink" xmlns:sketch="http://www.bohemiancoding.com/sketch/ns">
    <!-- Generator: Sketch 3.3.3 (12072) - http://www.bohemiancoding.com/sketch -->
    <title>linkedin_icon</title>
    <desc>Created with Sketch.</desc>
    <defs></defs>
    <g id="Page-1" stroke="none" stroke-width="1" fill="none" fill-rule="evenodd" sketch:type="MSPage">
        <g id="Desktop-HD-Copy" sketch:type="MSArtboardGroup" transform="translate(-684.000000, -2330.000000)">
            <g id="linkedin_icon" sketch:type="MSLayerGroup" transform="translate(684.000000, 2330.000000)">
                <path d="M69.5674841,34.7826711 C69.5674841,53.6882951 54.048787,69.0150307 34.9051194,69.0150307 C15.7627097,69.0150307 0.244012582,53.6882951 0.244012582,34.7826711 C0.244012582,15.8758049 15.7627097,0.550311547 34.9051194,0.550311547 C54.048787,0.550311547 69.5674841,15.8758049 69.5674841,34.7826711" id="Fill-1" fill="#84A5AB" sketch:type="MSShapeGroup"></path>
                <path d="M31.057519,49.1392187 C31.0776437,43.1416924 31.1002841,37.1454083 31.1141198,31.147882 C31.1153776,30.1714827 31.0801593,29.1950835 31.0625502,28.217442 L31.0625502,28.0994293 L38.1389151,28.0994293 L38.1389151,31.0683788 C38.1980315,30.9901177 38.2332498,30.9478816 38.2634369,30.9031611 C39.1275433,29.6497427 40.2205688,28.6683745 41.6632617,28.1006716 C42.7537716,27.6708571 43.8920777,27.5391799 45.0567975,27.5950806 C46.1875569,27.6497391 47.2805823,27.8745842 48.2968821,28.3814174 C50.1961553,29.3292452 51.423765,30.8410492 52.0841083,32.8211769 C52.4337759,33.869626 52.6010628,34.9503733 52.6626949,36.0509964 C52.6664683,36.1379531 52.6815618,36.226152 52.6916242,36.3131087 L52.6916242,49.1392187 L45.6077125,49.1392187 C45.6077125,45.4062927 45.6077125,41.6721245 45.6089703,37.9391985 C45.6089703,37.3180794 45.5687208,36.7019292 45.4479723,36.090748 C45.3460908,35.5789459 45.1876084,35.0857773 44.9196977,34.6311181 C44.3738139,33.7031661 43.5348634,33.2485069 42.4707673,33.1516123 C41.098511,33.024904 39.9677516,33.4534762 39.0898094,34.5242856 C38.4131148,35.350374 38.1338839,36.2870217 38.1376573,37.3404397 C38.1489774,41.273366 38.1414306,45.2062923 38.1414306,49.1392187 L31.057519,49.1392187" id="Fill-2" fill="#FFFFFF" sketch:type="MSShapeGroup"></path>
                <path d="M20.050539,49.1392187 L20.050539,28.0994293 L27.1331929,28.0994293 L27.1331929,49.1392187 L20.050539,49.1392187" id="Fill-3" fill="#FFFFFF" sketch:type="MSShapeGroup"></path>
                <path d="M24.0704577,17.9416471 C24.3056657,17.9813987 24.5421315,18.0112125 24.7735661,18.0633865 C26.464045,18.4435114 27.5583282,19.7975511 27.6149291,21.5043864 C27.6841079,23.5888622 26.1231821,24.9304795 24.4138362,25.1602936 C23.5371518,25.2783063 22.6680142,25.2596727 21.8454151,24.9056348 C20.5825871,24.3615344 19.8430026,23.4074954 19.6643954,22.0472446 C19.6593642,22.0124619 19.6455285,21.9776792 19.6354661,21.9441388 L19.6354661,21.1876157 C19.6732,20.9987955 19.6983559,20.8062485 19.7511834,20.621155 C20.1486472,19.2310904 21.1045728,18.4211511 22.4919227,18.0695977 C22.7271307,18.0099702 22.9698855,17.982641 23.2088668,17.9416471 L24.0704577,17.9416471" id="Fill-4" fill="#FFFFFF" sketch:type="MSShapeGroup"></path>
            </g>
        </g>
    </g>
</svg>