<?xml version="1.0" encoding="UTF-8" standalone="no"?>
<svg width="126px" height="146px" viewBox="0 0 126 146" version="1.1" xmlns="http://www.w3.org/2000/svg" xmlns:xlink="http://www.w3.org/1999/xlink" xmlns:sketch="http://www.bohemiancoding.com/sketch/ns">
    <!-- Generator: Sketch 3.3.3 (12072) - http://www.bohemiancoding.com/sketch -->
    <title>loughborough_icon</title>
    <desc>Created with Sketch.</desc>
    <defs></defs>
    <g id="Page-1" stroke="none" stroke-width="1" fill="none" fill-rule="evenodd" sketch:type="MSPage">
        <g id="Desktop-HD" sketch:type="MSArtboardGroup" transform="translate(-901.000000, -593.000000)">
            <g id="loughborough_icon" sketch:type="MSLayerGroup" transform="translate(902.000000, 595.000000)">
                <path d="M62,0 L123.475253,35.5 L123.475253,106.5 L62,142 L0.524747423,106.5 L0.524747423,35.5 L62,0 Z" id="Polygon-1-Copy-17" stroke="#84A5AB" stroke-width="2" sketch:type="MSShapeGroup"></path>
                <path d="M58.0904058,70.955962 L81.1013913,70.955962 C80.9037101,72.8361139 80.8147536,74.6048228 80.520029,76.338481 C79.3204638,83.4061266 75.161971,88.2350253 68.8846957,91.3698101 C66.5763188,92.5219873 64.196058,93.5312658 61.8391594,94.5827848 C61.5983478,94.6906329 61.247913,94.7382658 61.0142899,94.6456962 C57.0247246,93.0783038 53.0971594,91.3743038 49.6350435,88.7922405 C45.4873333,85.7005949 43.0306957,81.5331646 42.1752754,76.4616076 C41.8544928,74.5580886 41.7017391,72.6069367 41.6882609,70.675557 C41.6343478,63.1010253 41.6666957,55.5264937 41.6666957,47.9510633 L41.6666957,47.3228481 L58.0904058,47.3228481 L58.0904058,70.955962" id="Fill-1-Copy" fill="#84A5AB" sketch:type="MSShapeGroup"></path>
                <path d="M80.8875362,47.3489114 L80.8875362,64.7609873 L64.6722899,64.7609873 L64.6722899,47.3489114 L80.8875362,47.3489114" id="Fill-2-Copy" fill="#84A5AB" sketch:type="MSShapeGroup"></path>
            </g>
        </g>
    </g>
</svg>