<?xml version="1.0" encoding="UTF-8" standalone="no"?>
<svg width="126px" height="146px" viewBox="0 0 126 146" version="1.1" xmlns="http://www.w3.org/2000/svg" xmlns:xlink="http://www.w3.org/1999/xlink" xmlns:sketch="http://www.bohemiancoding.com/sketch/ns">
    <!-- Generator: Sketch 3.3.3 (12072) - http://www.bohemiancoding.com/sketch -->
    <title>o2_icon_white</title>
    <desc>Created with Sketch.</desc>
    <defs></defs>
    <g id="Page-1" stroke="none" stroke-width="1" fill="none" fill-rule="evenodd" sketch:type="MSPage">
        <g id="o2_icon_white" sketch:type="MSLayerGroup" transform="translate(1.000000, 1.725311)">
            <path d="M62.1412345,0.0901243094 L123.411132,35.5450622 L123.411132,106.454938 L62.1412345,141.909876 L0.871337313,106.454938 L0.871337313,35.5450622 L62.1412345,0.0901243094 Z" id="Polygon-1-Copy" stroke="#FFFFFF" stroke-width="3" sketch:type="MSShapeGroup"></path>
            <path d="M77.9261739,86.5789873 C77.8784348,86.0889873 77.8404203,85.7070886 77.8015217,85.3243038 C77.5584058,82.946962 77.546029,82.9 79.8932029,82.2974684 C81.1078986,81.9864557 82.3703333,81.7392405 83.6177391,81.7011392 C88.5127681,81.5522785 91.3249565,85.2365823 89.7672464,89.8964557 C89.2421159,91.4692405 88.2758406,92.9418987 87.2874638,94.2958228 C86.3141159,95.628481 85.0746667,96.7697468 83.9156667,97.9597468 C83.5204928,98.3655696 83.0148116,98.6650633 82.5595217,99.0132911 C82.6355507,99.151519 82.7115797,99.2906329 82.7884928,99.4288608 L86.8251014,99.4288608 L90.9014928,99.4288608 L90.9014928,102.59038 L77.210087,102.59038 C77.210087,101.556329 77.1552754,100.51519 77.241913,99.4855696 C77.2693188,99.1621519 77.6468116,98.8440506 77.912029,98.5702532 C79.8967391,96.5225316 81.9548261,94.5421519 83.8582029,92.4226582 C84.6609275,91.5286076 85.2841884,90.4059494 85.7474348,89.2868354 C86.7216667,86.9360759 85.4079565,84.9432911 82.8813188,85.0575949 C81.5605362,85.116962 80.2592029,85.6911392 78.9578696,86.0641772 C78.6281159,86.1581013 78.3328406,86.3716456 77.9261739,86.5789873" id="Fill-1" fill="#FFFFFF" sketch:type="MSShapeGroup"></path>
            <path d="M78.7421594,58.773038 C77.790913,53.6258228 75.6170145,49.0439241 71.6670435,45.52 C66.825058,41.2012658 61.3403623,39.4211392 55.5170725,39.5558228 C49.6937826,39.4211392 44.209087,41.2012658 39.3671014,45.52 C35.4162464,49.0439241 33.2432319,53.6258228 32.2911014,58.773038 C31.0666812,65.3973418 31.4344493,71.9179747 34.2890725,78.1063291 C37.8288406,85.7832911 44.0446522,89.7768354 52.3061739,90.6983544 C53.3829565,90.8188608 54.4535507,90.8888608 55.5170725,90.903038 C56.5805942,90.8888608 57.6511884,90.8188608 58.727971,90.6983544 C66.9894928,89.7768354 73.2044203,85.7832911 76.7450725,78.1063291 C79.5996957,71.9179747 79.9674638,65.3973418 78.7421594,58.773038 L78.7421594,58.773038 L78.7421594,58.773038 Z M66.6968696,77.4621519 C64.309913,80.8017722 59.9559275,82.7422785 55.5170725,82.7644304 C51.0782174,82.7422785 46.7242319,80.8017722 44.3363913,77.4621519 C41.7222319,73.8044304 40.7877826,69.6868354 40.7303188,66.2010127 C40.7135217,62.1755696 41.2192029,59.1549367 42.5231884,56.3159494 C44.9932464,50.9427848 49.1156087,47.8813924 55.098913,47.7024051 C55.2385942,47.6979747 55.3782754,47.6953165 55.5170725,47.6944304 C55.6558696,47.6953165 55.7955507,47.6979747 55.9352319,47.7024051 C61.9185362,47.8813924 66.0400145,50.9427848 68.5100725,56.3159494 C69.814942,59.1549367 70.3197391,62.1755696 70.3038261,66.2010127 C70.2463623,69.6868354 69.311913,73.8044304 66.6968696,77.4621519 L66.6968696,77.4621519 L66.6968696,77.4621519 Z" id="Fill-2" fill="#FFFFFF" sketch:type="MSShapeGroup"></path>
        </g>
    </g>
</svg>