<?xml version="1.0" encoding="UTF-8" standalone="no"?>
<svg width="128px" height="147px" viewBox="0 0 128 147" version="1.1" xmlns="http://www.w3.org/2000/svg" xmlns:xlink="http://www.w3.org/1999/xlink" xmlns:sketch="http://www.bohemiancoding.com/sketch/ns">
    <!-- Generator: Sketch 3.3.3 (12072) - http://www.bohemiancoding.com/sketch -->
    <title>shark_icon_white</title>
    <desc>Created with Sketch.</desc>
    <defs></defs>
    <g id="Page-1" stroke="none" stroke-width="1" fill="none" fill-rule="evenodd" sketch:type="MSPage">
        <g id="shark_icon_white" sketch:type="MSLayerGroup" transform="translate(2.000000, 2.635186)">
            <path d="M61.7928917,0 L123.540061,35.4549378 L123.540061,106.364814 L61.7928917,141.819751 L0.0457217013,106.364814 L0.0457217013,35.4549378 L61.7928917,0 Z" id="Polygon-1-Copy-7" stroke="#FFFFFF" stroke-width="3" sketch:type="MSShapeGroup"></path>
            <path d="M93.0906605,35.0061412 C57.8010228,35.0061412 20.2767327,95.2211923 20.2767327,95.2211923 L99.3180844,95.2211923 C99.3180844,95.2211923 67.8343953,69.4144851 93.0906605,35.0061412 L93.0906605,35.0061412 L93.0906605,35.0061412 Z M50.7640338,81.6711225 L46.8254138,74.8880094 L50.7640338,68.1048964 L58.6394686,68.1048964 L62.5771861,74.8880094 L58.6394686,81.6711225 L50.7640338,81.6711225 L50.7640338,81.6711225 Z M71.7576723,89.14628 L63.88314,89.14628 L59.9454226,82.3631671 L63.88314,75.580054 L71.7576723,75.580054 L75.6962923,82.3631671 L71.7576723,89.14628 L71.7576723,89.14628 Z M71.7576723,74.0595308 L63.88314,74.0595308 L59.9454226,67.2764177 L63.88314,60.4942023 L71.7576723,60.4942023 L75.6962923,67.2764177 L71.7576723,74.0595308 L71.7576723,74.0595308 Z" id="Imported-Layers" fill="#FFFFFF" sketch:type="MSShapeGroup"></path>
        </g>
    </g>
</svg>