<?xml version="1.0" encoding="UTF-8" standalone="no"?>
<svg width="70px" height="70px" viewBox="0 0 70 70" version="1.1" xmlns="http://www.w3.org/2000/svg" xmlns:xlink="http://www.w3.org/1999/xlink" xmlns:sketch="http://www.bohemiancoding.com/sketch/ns">
    <!-- Generator: Sketch 3.3.3 (12072) - http://www.bohemiancoding.com/sketch -->
    <title>twitter_icon</title>
    <desc>Created with Sketch.</desc>
    <defs></defs>
    <g id="Page-1" stroke="none" stroke-width="1" fill="none" fill-rule="evenodd" sketch:type="MSPage">
        <g id="Desktop-HD-Copy" sketch:type="MSArtboardGroup" transform="translate(-576.000000, -2330.000000)">
            <g id="twitter_icon" sketch:type="MSLayerGroup" transform="translate(576.000000, 2330.000000)">
                <path d="M69.8328792,34.7826711 C69.8328792,53.6882951 54.3141821,69.0150307 35.1717724,69.0150307 C16.0281048,69.0150307 0.50940771,53.6882951 0.50940771,34.7826711 C0.50940771,15.8758049 16.0281048,0.550311547 35.1717724,0.550311547 C54.3141821,0.550311547 69.8328792,15.8758049 69.8328792,34.7826711" id="Fill-1" fill="#84A5AB" sketch:type="MSShapeGroup"></path>
                <path d="M50.2213113,26.2298608 C51.516842,25.8770651 52.8136305,25.5242694 54.1318016,25.1652626 C53.3997638,26.2298608 52.5922583,27.2509806 51.5445135,28.0050192 C50.7256878,28.5938402 50.5194091,29.2484997 50.4665816,30.2286257 C50.0326417,38.3851621 46.4604988,44.8274097 39.0470444,48.629901 C32.0272803,52.2299074 24.8892834,51.8274222 17.9990724,47.9255519 C17.9185734,47.8795891 17.8456212,47.8236883 17.7651222,47.7218248 C21.7485647,48.0212042 25.3471214,47.0522584 28.6702206,44.5938689 C26.9759683,44.4820674 25.5534001,44.0125014 24.3094391,43.0795804 C23.0730248,42.1503862 22.2001138,40.9652909 21.6743547,39.4249155 L24.8364559,39.4249155 C24.8465183,39.370257 24.8578385,39.3155985 24.8691586,39.2609401 C23.1862265,38.8187032 21.7598849,37.9851614 20.6781797,36.6348484 C19.592701,35.2795664 19.0430438,33.7379488 19.029208,31.9242809 C20.0731794,32.3963315 21.090737,32.7739719 22.353565,32.8000589 C20.7272337,31.5801809 19.679489,30.1130975 19.2694472,28.2609203 C18.8606633,26.4062586 19.122285,24.6373113 20.0995931,22.9118424 C24.1761126,27.6323477 29.2903145,30.2323524 35.5843297,30.6721048 C35.5503692,30.412477 35.5277289,30.2112344 35.4987995,30.011234 C35.0434771,26.8770669 36.6433946,23.8174341 39.5023668,22.3553196 C42.3198317,20.913081 45.80896,21.3888583 48.0968924,23.5503528 C48.3685766,23.8062539 48.6100735,23.8994218 48.9547099,23.7689868 C50.2099911,23.2932095 51.4665301,22.8248857 52.7218113,22.3491084 C52.85388,22.2994189 52.9771441,22.2261269 53.2010319,22.1168099 C52.618672,23.8435211 51.5658961,25.0919705 50.1445857,26.069612 C50.1697416,26.1230283 50.1948975,26.1764445 50.2213113,26.2298608" id="Fill-2" fill="#FFFFFF" sketch:type="MSShapeGroup"></path>
            </g>
        </g>
    </g>
</svg>